<svg width="40" height="40" viewBox="0 0 40 40" fill="none" xmlns="http://www.w3.org/2000/svg">
<g clip-path="url(#clip0_110_14574)">
<path d="M38.1 29.525H36.1875V31.425H40V23.8125H38.1V29.525Z" fill="white"/>
<path d="M38.0996 18.0879H39.9996V20.0004H38.0996V18.0879Z" fill="white"/>
<path d="M0 0.950195V31.4252H19.05V29.5252H1.9V2.8502H38.1V14.2877H40V0.950195H0Z" fill="white"/>
<path d="M36.1875 20H38.1V21.9H36.1875V20Z" fill="white"/>
<path d="M36.1875 16.1875H38.1V18.0875H36.1875V16.1875Z" fill="white"/>
<path d="M34.2883 25.7129H30.4758V27.6129H28.5758V29.5254H26.6633V27.6129H24.7633V25.7129H20.9508V21.9004H19.0508V27.6129H20.9508V39.0504H24.7633V37.1379H26.6633V35.2379H28.5758V37.1379H30.4758V39.0504H34.2883V27.6129H36.1883V21.9004H34.2883V25.7129Z" fill="white"/>
<path d="M36.1871 8.5752V4.7627H30.4746V6.6627H34.2871V8.5752H36.1871Z" fill="white"/>
<path d="M32.375 16.1875H34.2875V21.9H32.375V16.1875Z" fill="white"/>
<path d="M30.4746 21.9004H32.3746V23.8129H30.4746V21.9004Z" fill="white"/>
<path d="M30.4746 14.2881H32.3746V16.1881H30.4746V14.2881Z" fill="white"/>
<path d="M34.2871 12.3756V16.1881H36.1871V10.4756H30.4746V12.3756H34.2871Z" fill="white"/>
<path d="M24.7617 23.8125H30.4742V25.7125H24.7617V23.8125Z" fill="white"/>
<path d="M28.5742 8.5752H30.4742V10.4752H28.5742V8.5752Z" fill="white"/>
<path d="M26.6621 6.66309H28.5746V8.57559H26.6621V6.66309Z" fill="white"/>
<path d="M24.7617 12.375H30.4742V14.2875H24.7617V12.375Z" fill="white"/>
<path d="M24.7617 8.5752H26.6617V10.4752H24.7617V8.5752Z" fill="white"/>
<path d="M22.8633 21.9004H24.7633V23.8129H22.8633V21.9004Z" fill="white"/>
<path d="M22.8633 14.2881H24.7633V16.1881H22.8633V14.2881Z" fill="white"/>
<path d="M20.9492 16.1875H22.8617V21.9H20.9492V16.1875Z" fill="white"/>
<path d="M20.9508 12.3756H24.7633V10.4756H19.0508V16.1881H20.9508V12.3756Z" fill="white"/>
<path d="M17.1367 20H19.0492V21.9H17.1367V20Z" fill="white"/>
<path d="M17.1367 16.1875H19.0492V18.0875H17.1367V16.1875Z" fill="white"/>
<path d="M15.2383 18.0879H17.1383V20.0004H15.2383V18.0879Z" fill="white"/>
<path d="M24.7625 6.6627V4.7627H3.8125V27.6127H17.1375V25.7127H5.7125V6.6627H24.7625Z" fill="white"/>
<path d="M7.625 16.1875H13.3375V18.0875H7.625V16.1875Z" fill="white"/>
<path d="M7.625 8.5752H13.3375V14.2877H7.625V8.5752Z" fill="white"/>
<path d="M7.625 20H13.3375V21.9H7.625V20Z" fill="white"/>
</g>
<defs>
<clipPath id="clip0_110_14574">
<rect width="40" height="40" fill="white"/>
</clipPath>
</defs>
</svg>
