<svg width="40" height="40" viewBox="0 0 40 40" fill="none" xmlns="http://www.w3.org/2000/svg">
<g clip-path="url(#clip0_110_14447)">
<path d="M4.76172 1.9H35.2367V3.8125H33.3367V5.7125H35.2367V9.525H37.1492V38.1H39.0492V7.625H37.1492V1.9H39.0492V0L4.76172 0V1.9Z" fill="white"/>
<path d="M8.57422 38.1V9.525H19.9992V7.625H4.76172V9.525H6.67422V38.1H4.76172V40H37.1492V38.1H8.57422Z" fill="white"/>
<path d="M31.4375 13.3375H29.525V7.625H27.625V5.7125H29.525V3.8125H20V5.7125H21.9125V7.625H23.8125V26.6625H25.7125V24.7625H27.625V22.8625H29.525V24.7625H31.4375V26.6625H33.3375V7.625H31.4375V13.3375Z" fill="white"/>
<path d="M29.5234 5.71289H31.4359V7.62539H29.5234V5.71289Z" fill="white"/>
<path d="M6.67383 3.8125H18.0988V5.7125H6.67383V3.8125Z" fill="white"/>
<path d="M2.86133 36.1875H4.76133V38.1H2.86133V36.1875Z" fill="white"/>
<path d="M2.86133 1.90039H4.76133V3.81289H2.86133V1.90039Z" fill="white"/>
<path d="M2.86172 7.625H4.76172V5.7125H2.86172V3.8125H0.949219V36.1875H2.86172V7.625Z" fill="white"/>
</g>
<defs>
<clipPath id="clip0_110_14447">
<rect width="40" height="40" fill="white"/>
</clipPath>
</defs>
</svg>
