<svg width="40" height="40" viewBox="0 0 40 40" fill="none" xmlns="http://www.w3.org/2000/svg">
<g clip-path="url(#clip0_110_14458)">
<path d="M38.0879 5.7125H36.1879V3.8125H34.2754V1.9H30.4754V0L9.51289 0V1.9H22.8504V3.8125H26.6629V5.7125H28.5629V7.625H30.4754V17.1375H28.5629V19.05H26.6629V38.1H5.71289V40H32.3754V38.1H34.2754V36.1875H36.1879V34.2875H38.0879V17.1375H40.0004V7.625H38.0879V5.7125Z" fill="white"/>
<path d="M19.0371 26.6621H20.9496V28.5746H19.0371V26.6621Z" fill="white"/>
<path d="M17.1367 22.8623H19.0367V24.7623H17.1367V22.8623Z" fill="white"/>
<path d="M11.4258 28.5752H19.0383V30.4752H11.4258V28.5752Z" fill="white"/>
<path d="M11.4258 22.8623H13.3258V24.7623H11.4258V22.8623Z" fill="white"/>
<path d="M9.51172 26.6621H11.4242V28.5746H9.51172V26.6621Z" fill="white"/>
<path d="M5.71289 1.90039H9.51289V3.81289H5.71289V1.90039Z" fill="white"/>
<path d="M3.80078 19.0498H5.71328V38.0998H3.80078V19.0498Z" fill="white"/>
<path d="M3.80078 3.8125H5.71328V5.7125H3.80078V3.8125Z" fill="white"/>
<path d="M1.90039 17.1377H3.80039V19.0502H1.90039V17.1377Z" fill="white"/>
<path d="M1.90039 5.71289H3.80039V7.62539H1.90039V5.71289Z" fill="white"/>
<path d="M0 7.625H1.9V17.1375H0V7.625Z" fill="white"/>
</g>
<defs>
<clipPath id="clip0_110_14458">
<rect width="40" height="40" fill="white"/>
</clipPath>
</defs>
</svg>
