<svg width="40" height="40" viewBox="0 0 40 40" fill="none" xmlns="http://www.w3.org/2000/svg">
<path d="M23.8125 17.1494V19.0494H25.7125V26.6744H27.6125V19.0494H37.1375V30.4744H39.05V9.52441H37.1375V17.1494H23.8125Z" fill="white"/>
<path d="M35.2383 30.4756H37.1383V32.3881H35.2383V30.4756Z" fill="white"/>
<path d="M35.2383 7.625H37.1383V9.525H35.2383V7.625Z" fill="white"/>
<path d="M33.3359 11.4375H35.2359V13.3375H33.3359V11.4375Z" fill="white"/>
<path d="M4.76172 32.3877H35.2367V34.2877H4.76172V32.3877Z" fill="white"/>
<path d="M27.6133 13.3379H33.3383V15.2379H27.6133V13.3379Z" fill="white"/>
<path d="M27.6133 9.52441H33.3383V11.4369H27.6133V9.52441Z" fill="white"/>
<path d="M25.7129 11.4375H27.6129V13.3375H25.7129V11.4375Z" fill="white"/>
<path d="M23.8125 26.6748H25.7125V28.5748H23.8125V26.6748Z" fill="white"/>
<path d="M21.9004 5.71289H35.2379V7.62539H21.9004V5.71289Z" fill="white"/>
<path d="M18.1 26.6758H21.9V24.7633H23.8125V20.9508H21.9V22.8633H20V20.9508H21.9V19.0508H18.1V20.9508H16.1875V24.7633H18.1V26.6758Z" fill="white"/>
<path d="M16.1875 15.2373H23.8125V17.1498H16.1875V15.2373Z" fill="white"/>
<path d="M16.1875 28.5762H23.8125V30.4762H16.1875V28.5762Z" fill="white"/>
<path d="M20 7.625H21.9V9.525H20V7.625Z" fill="white"/>
<path d="M14.2871 26.6748H16.1871V28.5748H14.2871V26.6748Z" fill="white"/>
<path d="M10.4746 5.71289H16.1871V7.62539H10.4746V5.71289Z" fill="white"/>
<path d="M6.66406 13.3379H10.4766V15.2379H6.66406V13.3379Z" fill="white"/>
<path d="M19.9992 11.4375V9.525H18.0992V7.625H16.1867V9.525H10.4742V7.625H8.57422V9.525H4.76172V11.4375H19.9992Z" fill="white"/>
<path d="M2.85156 30.4756H4.76406V32.3881H2.85156V30.4756Z" fill="white"/>
<path d="M2.85156 11.4375H4.76406V13.3375H2.85156V11.4375Z" fill="white"/>
<path d="M2.85117 19.0504H12.3762V26.6754H14.2887V19.0504H16.1887V17.1504H2.85117V13.3379H0.951172V30.4754H2.85117V19.0504Z" fill="white"/>
</svg>
