<svg width="40" height="40" viewBox="0 0 40 40" fill="none" xmlns="http://www.w3.org/2000/svg">
<path d="M38.0938 28.5752H32.3813V26.6627H34.2812V24.7627H5.71875V26.6627H7.625V28.5752H1.90625V40.0002H38.0938V28.5752ZM9.51875 26.6627H30.4688V28.5752H9.51875V26.6627ZM36.1938 38.1002H3.80625V30.4752H36.1938V38.1002Z" fill="white"/>
<path d="M34.2812 1.8999H36.1938V24.7624H34.2812V1.8999Z" fill="white"/>
<path d="M22.856 32.375H32.381V34.2875H22.856V32.375Z" fill="white"/>
<path d="M22.856 13.3374H24.756V15.2374H22.856V13.3374Z" fill="white"/>
<path d="M22.856 9.52539H24.756V11.4254H22.856V9.52539Z" fill="white"/>
<path d="M17.1436 15.2373H22.8561V17.1373H17.1436V15.2373Z" fill="white"/>
<path d="M15.2314 13.3374H17.1439V15.2374H15.2314V13.3374Z" fill="white"/>
<path d="M15.2314 9.52539H17.1439V11.4254H15.2314V9.52539Z" fill="white"/>
<path d="M7.625 22.8625H32.3875V3.8125H7.625V22.8625ZM9.51875 5.7125H30.4687V20.95H9.51875V5.7125Z" fill="white"/>
<path d="M7.61816 32.375H11.4307V36.1875H7.61816V32.375Z" fill="white"/>
<path d="M5.71826 0H34.2808V1.9H5.71826V0Z" fill="white"/>
<path d="M3.80615 1.8999H5.71865V24.7624H3.80615V1.8999Z" fill="white"/>
</svg>
