<svg width="40" height="40" viewBox="0 0 40 40" fill="none" xmlns="http://www.w3.org/2000/svg">
<g clip-path="url(#clip0_110_14473)">
<path d="M36.8086 14.3896H39.0439V25.5955H36.8086V14.3896Z" fill="white"/>
<path d="M34.5586 25.5967H36.8086V30.082H34.5586V25.5967Z" fill="white"/>
<path d="M34.5586 9.91992H36.8086V14.3905H34.5586V9.91992Z" fill="white"/>
<path d="M32.3223 30.082H34.5576V32.3173H32.3223V30.082Z" fill="white"/>
<path d="M32.3223 7.66992H34.5576V9.91992H32.3223V7.66992Z" fill="white"/>
<path d="M30.0742 32.3164H32.3242V34.5664H30.0742V32.3164Z" fill="white"/>
<path d="M30.0742 21.126H32.3242V23.3613H30.0742V21.126Z" fill="white"/>
<path d="M30.0742 5.43457H32.3242V7.66986H30.0742V5.43457Z" fill="white"/>
<path d="M25.6016 14.3896H30.0721V18.8749H25.6016V14.3896Z" fill="white"/>
<path d="M25.6016 34.5664H30.0721V36.8017H25.6016V34.5664Z" fill="white"/>
<path d="M25.6016 9.91992H27.8369V12.1552H25.6016V9.91992Z" fill="white"/>
<path d="M25.6016 3.18457H30.0721V5.43457H25.6016V3.18457Z" fill="white"/>
<path d="M14.3984 36.8018H25.6043V39.0518H14.3984V36.8018Z" fill="white"/>
<path d="M21.1172 25.5967H25.6025V30.082H21.1172V25.5967Z" fill="white"/>
<path d="M16.6309 32.3164H18.8809V34.5664H16.6309V32.3164Z" fill="white"/>
<path d="M16.6309 18.875H18.8809V21.125H16.6309V18.875Z" fill="white"/>
<path d="M14.3984 0.949219H25.6043V3.18451H14.3984V0.949219Z" fill="white"/>
<path d="M14.3984 7.66992H18.8837V12.1552H14.3984V7.66992Z" fill="white"/>
<path d="M9.91211 34.5664H14.3974V36.8017H9.91211V34.5664Z" fill="white"/>
<path d="M12.1465 27.8457H14.3965V30.081H12.1465V27.8457Z" fill="white"/>
<path d="M9.91211 3.18457H14.3974V5.43457H9.91211V3.18457Z" fill="white"/>
<path d="M7.67773 32.3164H9.91303V34.5664H7.67773V32.3164Z" fill="white"/>
<path d="M7.67773 14.3896H9.91303V16.6396H7.67773V14.3896Z" fill="white"/>
<path d="M7.67773 5.43457H9.91303V7.66986H7.67773V5.43457Z" fill="white"/>
<path d="M5.42773 30.082H7.67773V32.3173H5.42773V30.082Z" fill="white"/>
<path d="M5.42773 18.875H9.91303V23.3603H5.42773V18.875Z" fill="white"/>
<path d="M5.42773 7.66992H7.67773V9.91992H5.42773V7.66992Z" fill="white"/>
<path d="M3.19141 25.5967H5.4267V30.082H3.19141V25.5967Z" fill="white"/>
<path d="M3.19141 9.91992H5.4267V14.3905H3.19141V9.91992Z" fill="white"/>
<path d="M0.955078 14.3896H3.19037V25.5955H0.955078V14.3896Z" fill="white"/>
</g>
<defs>
<clipPath id="clip0_110_14473">
<rect width="40" height="40" fill="white"/>
</clipPath>
</defs>
</svg>
