<svg width="40" height="40" viewBox="0 0 40 40" fill="none" xmlns="http://www.w3.org/2000/svg">
<g clip-path="url(#clip0_198_4169)">
<path d="M37.1436 6.67529H39.0436V16.1878H37.1436V6.67529Z" fill="white"/>
<path d="M33.3312 6.67529H37.1437V4.76279H33.3312V2.86279H31.4312V21.9128H33.3312V18.1003H37.1437V16.1878H33.3312V6.67529Z" fill="white"/>
<path d="M29.5186 21.9126H31.4311V23.8126H29.5186V21.9126Z" fill="white"/>
<path d="M27.6187 23.8125H29.5187V25.7125H27.6187V23.8125Z" fill="white"/>
<path d="M12.3809 37.1503V35.2378H10.4809V37.1503H8.56836V39.0503H31.4309V37.1503H29.5184V35.2378H27.6184V37.1503H12.3809Z" fill="white"/>
<path d="M23.8062 33.3379H27.6187V35.2379H23.8062V33.3379Z" fill="white"/>
<path d="M23.8062 25.7129H27.6187V27.6254H23.8062V25.7129Z" fill="white"/>
<path d="M21.9059 10.4753V6.67529H18.0934V10.4753H12.3809V12.3878H14.2809V14.2878H16.1934V16.1878H14.2809V20.0003H18.0934V18.1003H21.9059V20.0003H25.7184V16.1878H23.8059V14.2878H25.7184V12.3878H27.6184V10.4753H21.9059Z" fill="white"/>
<path d="M21.9062 27.625H23.8062V33.3375H21.9062V27.625Z" fill="white"/>
<path d="M16.1934 27.625H18.0934V33.3375H16.1934V27.625Z" fill="white"/>
<path d="M12.3809 33.3379H16.1934V35.2379H12.3809V33.3379Z" fill="white"/>
<path d="M12.3809 25.7129H16.1934V27.6254H12.3809V25.7129Z" fill="white"/>
<path d="M10.481 23.8125H12.381V25.7125H10.481V23.8125Z" fill="white"/>
<path d="M8.56836 0.950195H31.4309V2.8627H8.56836V0.950195Z" fill="white"/>
<path d="M8.56836 21.9126H10.4809V23.8126H8.56836V21.9126Z" fill="white"/>
<path d="M8.56846 2.86279H6.66846V4.76279H2.85596V6.67529H6.66846V16.1878H2.85596V18.1003H6.66846V21.9128H8.56846V2.86279Z" fill="white"/>
<path d="M0.956055 6.67529H2.85605V16.1878H0.956055V6.67529Z" fill="white"/>
</g>
<defs>
<clipPath id="clip0_198_4169">
<rect width="40" height="40" fill="white"/>
</clipPath>
</defs>
</svg>
