<svg width="40" height="40" viewBox="0 0 40 40" fill="none" xmlns="http://www.w3.org/2000/svg">
<g clip-path="url(#clip0_194_4136)">
<path d="M34.2876 0V40H40.0001V0H34.2876ZM38.1001 38.1H36.2001V36.2H38.1001V38.1ZM38.1001 34.2875H36.2001V32.3875H38.1001V34.2875ZM38.1001 30.475H36.2001V28.575H38.1001V30.475ZM38.1001 26.675H36.2001V24.7625H38.1001V26.675ZM38.1001 22.8625H36.2001V20.9625H38.1001V22.8625ZM38.1001 19.05H36.2001V17.15H38.1001V19.05ZM38.1001 15.2375H36.2001V13.3375H38.1001V15.2375ZM38.1001 11.4375H36.2001V9.525H38.1001V11.4375ZM38.1001 7.625H36.2001V5.725H38.1001V7.625ZM38.1001 3.8125H36.2001V1.9125H38.1001V3.8125Z" fill="white"/>
<path d="M30.4878 38.1001H32.3878V40.0001H30.4878V38.1001Z" fill="white"/>
<path d="M30.4878 17.1504H32.3878V30.4754H30.4878V17.1504Z" fill="white"/>
<path d="M30.4878 0H32.3878V9.525H30.4878V0Z" fill="white"/>
<path d="M9.52539 36.2002H30.4879V38.1002H9.52539V36.2002Z" fill="white"/>
<path d="M9.52539 30.4746H30.4879V32.3871H9.52539V30.4746Z" fill="white"/>
<path d="M26.6748 24.7627H28.5748V26.6752H26.6748V24.7627Z" fill="white"/>
<path d="M9.52539 9.52539H30.4879V11.4379H9.52539V9.52539Z" fill="white"/>
<path d="M24.7627 20.9624H26.6752V22.8624H24.7627V20.9624Z" fill="white"/>
<path d="M20.9624 26.6748H26.6749V28.5748H20.9624V26.6748Z" fill="white"/>
<path d="M20.9624 20.9624H22.8624V22.8624H20.9624V20.9624Z" fill="white"/>
<path d="M19.0503 24.7627H20.9628V26.6752H19.0503V24.7627Z" fill="white"/>
<path d="M9.52539 15.2373H30.4879V17.1498H9.52539V15.2373Z" fill="white"/>
<path d="M7.625 38.1001H9.525V40.0001H7.625V38.1001Z" fill="white"/>
<path d="M7.625 17.1504H9.525V30.4754H7.625V17.1504Z" fill="white"/>
<path d="M7.625 0H9.525V9.525H7.625V0Z" fill="white"/>
<path d="M0 0V40H5.725V0H0ZM3.8125 38.1H1.9125V36.2H3.8125V38.1ZM3.8125 34.2875H1.9125V32.3875H3.8125V34.2875ZM3.8125 30.475H1.9125V28.575H3.8125V30.475ZM3.8125 26.675H1.9125V24.7625H3.8125V26.675ZM3.8125 22.8625H1.9125V20.9625H3.8125V22.8625ZM3.8125 19.05H1.9125V17.15H3.8125V19.05ZM3.8125 15.2375H1.9125V13.3375H3.8125V15.2375ZM3.8125 11.4375H1.9125V9.525H3.8125V11.4375ZM3.8125 7.625H1.9125V5.725H3.8125V7.625ZM3.8125 3.8125H1.9125V1.9125H3.8125V3.8125Z" fill="white"/>
</g>
<defs>
<clipPath id="clip0_194_4136">
<rect width="40" height="40" fill="white"/>
</clipPath>
</defs>
</svg>
