<svg width="40" height="40" viewBox="0 0 40 40" fill="none" xmlns="http://www.w3.org/2000/svg">
<g clip-path="url(#clip0_194_4156)">
<path d="M38.0879 11.4253H40.0004V26.6628H38.0879V11.4253Z" fill="white"/>
<path d="M36.1875 9.52539H38.0875V11.4254H36.1875V9.52539Z" fill="white"/>
<path d="M20.95 26.6625V11.425H19.05V9.525H26.6625V15.2375H28.5625V9.525H36.1875V7.625H28.5625V5.7125H34.2875V0H26.6625V7.625H9.525V9.525H7.6125V11.425H5.7125V26.6625H3.8125V28.575H17.1375V30.475H19.05V40H20.95V28.575H26.6625V40H28.5625V28.575H38.0875V26.6625H20.95ZM28.5625 1.9H32.375V3.8125H28.5625V1.9ZM19.05 22.8625H17.1375V24.7625H19.05V26.6625H9.525V15.2375H19.05V22.8625Z" fill="white"/>
<path d="M15.2373 20.9497H17.1373V22.8622H15.2373V20.9497Z" fill="white"/>
<path d="M13.3374 30.4746H17.1374V32.3746H13.3374V30.4746Z" fill="white"/>
<path d="M13.3378 19.0502V17.1377H11.4253V19.0502H13.3253V20.9502H15.2378V19.0502H13.3378Z" fill="white"/>
<path d="M11.4253 32.375H13.3378V34.2875H11.4253V32.375Z" fill="white"/>
<path d="M1.8999 34.2876H11.4249V36.1876H1.8999V34.2876Z" fill="white"/>
<path d="M1.8999 28.5747H3.8124V30.4747H1.8999V28.5747Z" fill="white"/>
<path d="M0 30.4746H1.9V34.2871H0V30.4746Z" fill="white"/>
</g>
<defs>
<clipPath id="clip0_194_4156">
<rect width="40" height="40" fill="white"/>
</clipPath>
</defs>
</svg>
