<svg width="40" height="40" viewBox="0 0 40 40" fill="none" xmlns="http://www.w3.org/2000/svg">
<g clip-path="url(#clip0_151_22440)">
<path d="M38.0996 20.9502H39.9996V36.1877H38.0996V20.9502Z" fill="white"/>
<path d="M36.1875 36.1875H38.1V38.1H36.1875V36.1875Z" fill="white"/>
<path d="M36.1879 19.05V3.8125H34.2879V1.9H32.3879V0H22.8629V1.9H20.9504V3.8125H19.0504V19.05H17.1504V20.95H38.1004V19.05H36.1879ZM32.3879 19.05H22.8629V5.7125H24.7629V3.8125H30.4754V5.7125H32.3879V19.05Z" fill="white"/>
<path d="M19.0508 38.0996H36.1883V39.9996H19.0508V38.0996Z" fill="white"/>
<path d="M30.4746 28.5752H32.3871V30.4752H30.4746V28.5752Z" fill="white"/>
<path d="M30.4746 24.7627H32.3871V26.6627H30.4746V24.7627Z" fill="white"/>
<path d="M24.7617 30.4746H30.4742V32.3746H24.7617V30.4746Z" fill="white"/>
<path d="M22.8633 28.5752H24.7633V30.4752H22.8633V28.5752Z" fill="white"/>
<path d="M22.8633 24.7627H24.7633V26.6627H22.8633V24.7627Z" fill="white"/>
<path d="M17.1504 36.1875H19.0504V38.1H17.1504V36.1875Z" fill="white"/>
<path d="M15.2383 20.9502H17.1508V26.6627H15.2383V20.9502Z" fill="white"/>
<path d="M13.3379 28.5752H15.2379V36.1877H13.3379V28.5752Z" fill="white"/>
<path d="M11.4375 36.1875H13.3375V38.1H11.4375V36.1875Z" fill="white"/>
<path d="M11.4375 26.6621H13.3375V28.5746H11.4375V26.6621Z" fill="white"/>
<path d="M9.52539 7.6123H11.4379V26.6623H9.52539V7.6123Z" fill="white"/>
<path d="M3.8125 38.0996H11.4375V39.9996H3.8125V38.0996Z" fill="white"/>
<path d="M9.525 28.5752H5.7125V30.4752H3.8125V34.2877H5.7125V36.1877H9.525V34.2877H11.4375V30.4752H9.525V28.5752Z" fill="white"/>
<path d="M5.71289 5.71289H9.52539V7.61289H5.71289V5.71289Z" fill="white"/>
<path d="M5.7125 20.9498H1.9125V19.0498H5.7125V13.3373H1.9125V11.4248H5.7125V7.6123H3.8125V9.5248H0V15.2373H3.8125V17.1373H0V22.8498H3.8125V26.6623H5.7125V20.9498Z" fill="white"/>
<path d="M1.91211 36.1875H3.81211V38.1H1.91211V36.1875Z" fill="white"/>
<path d="M1.91211 26.6621H3.81211V28.5746H1.91211V26.6621Z" fill="white"/>
<path d="M0 28.5752H1.9125V36.1877H0V28.5752Z" fill="white"/>
</g>
<defs>
<clipPath id="clip0_151_22440">
<rect width="40" height="40" fill="white"/>
</clipPath>
</defs>
</svg>
