<svg width="40" height="40" viewBox="0 0 40 40" fill="none" xmlns="http://www.w3.org/2000/svg">
<g clip-path="url(#clip0_158_16820)">
<path d="M38.0992 15.2375V13.3375H36.1867V11.425H34.2867V7.625H32.3867V22.8625H34.2867V20.95H36.1867V19.05H38.0992V36.1875H39.9992V15.2375H38.0992Z" fill="white"/>
<path d="M36.1875 36.1885H38.1V38.101H36.1875V36.1885Z" fill="white"/>
<path d="M3.8125 38.1006H36.1875V40.0006H3.8125V38.1006Z" fill="white"/>
<path d="M30.4746 22.8633H32.3871V24.7633H30.4746V22.8633Z" fill="white"/>
<path d="M28.5742 32.3877H30.4742V34.2877H28.5742V32.3877Z" fill="white"/>
<path d="M28.5742 24.7627H30.4742V26.6627H28.5742V24.7627Z" fill="white"/>
<path d="M26.6641 30.4756H28.5766V32.3881H26.6641V30.4756Z" fill="white"/>
<path d="M26.6641 26.6621H28.5766V28.5746H26.6641V26.6621Z" fill="white"/>
<path d="M13.3359 28.5742H26.6609V30.4742H13.3359V28.5742Z" fill="white"/>
<path d="M11.4258 30.4756H13.3383V32.3881H11.4258V30.4756Z" fill="white"/>
<path d="M11.4258 26.6621H13.3383V28.5746H11.4258V26.6621Z" fill="white"/>
<path d="M9.52539 32.3877H11.4254V34.2877H9.52539V32.3877Z" fill="white"/>
<path d="M9.52539 24.7627H11.4254V26.6627H9.52539V24.7627Z" fill="white"/>
<path d="M32.3855 7.625V5.7125H28.573V3.8125H26.6605V1.9H24.7605V0H15.2355V1.9H13.3355V3.8125H11.423V5.7125H7.62305V7.625H32.3855Z" fill="white"/>
<path d="M7.62305 22.8633H9.52305V24.7633H7.62305V22.8633Z" fill="white"/>
<path d="M1.90039 36.1885H3.81289V38.101H1.90039V36.1885Z" fill="white"/>
<path d="M1.9 19.05H3.8125V20.95H5.7125V22.8625H7.625V7.625H5.7125V11.425H3.8125V13.3375H1.9V15.2375H0V36.1875H1.9V19.05Z" fill="white"/>
</g>
<defs>
<clipPath id="clip0_158_16820">
<rect width="40" height="40" fill="white"/>
</clipPath>
</defs>
</svg>
