<svg width="40" height="40" viewBox="0 0 24 24" fill="none" xmlns="http://www.w3.org/2000/svg">
<g clip-path="url(#clip0_110_14370)">
<path d="M22.8529 11.4226H21.7129V12.5701H22.8529V21.7126H24.0004V9.14258H22.8529V11.4226Z" fill="white"/>
<path d="M21.7129 21.7129H22.8529V22.8529H21.7129V21.7129Z" fill="white"/>
<path d="M21.7129 7.99512H22.8529V9.14262H21.7129V7.99512Z" fill="white"/>
<path d="M20.5718 21.7129H19.4243V22.8529H4.5668V21.7129H3.4268V22.8529H2.2793V24.0004H21.7118V22.8529H20.5718V21.7129Z" fill="white"/>
<path d="M18.2852 20.5654H19.4252V21.7129H18.2852V20.5654Z" fill="white"/>
<path d="M17.1367 19.4248H18.2842V20.5648H17.1367V19.4248Z" fill="white"/>
<path d="M17.1367 13.71H19.4242V14.8575H17.1367V13.71Z" fill="white"/>
<path d="M15.998 18.2852H17.138V19.4252H15.998V18.2852Z" fill="white"/>
<path d="M14.8574 17.1377H15.9974V18.2852H14.8574V17.1377Z" fill="white"/>
<path d="M14.8574 14.8574H17.1374V15.9974H14.8574V14.8574Z" fill="white"/>
<path d="M14.8574 1.13965H15.9974V2.27965H14.8574V1.13965Z" fill="white"/>
<path d="M14.8566 7.99512H12.5691V9.14262H11.4291V7.99512H9.14164V9.14262H7.99414V11.4226H9.14164V12.5701H10.2816V13.7101H11.4291V14.8576H12.5691V13.7101H13.7091V12.5701H14.8566V11.4226H15.9966V9.14262H14.8566V7.99512Z" fill="white"/>
<path d="M9.14258 15.9971H14.8576V17.1371H9.14258V15.9971Z" fill="white"/>
<path d="M9.14258 0H14.8576V1.14H9.14258V0Z" fill="white"/>
<path d="M7.99414 17.1377H9.14164V18.2852H7.99414V17.1377Z" fill="white"/>
<path d="M6.85547 14.8574H9.14297V15.9974H6.85547V14.8574Z" fill="white"/>
<path d="M7.99414 1.13965H9.14164V2.27965H7.99414V1.13965Z" fill="white"/>
<path d="M6.85547 18.2852H7.99547V19.4252H6.85547V18.2852Z" fill="white"/>
<path d="M5.71484 19.4248H6.85484V20.5648H5.71484V19.4248Z" fill="white"/>
<path d="M4.56836 13.71H6.85586V14.8575H4.56836V13.71Z" fill="white"/>
<path d="M4.56836 20.5654H5.71586V21.7129H4.56836V20.5654Z" fill="white"/>
<path d="M3.4268 12.5703H2.2793V13.7103H4.5668V4.56777H19.4243V13.7103H21.7118V12.5703H20.5718V7.99527H21.7118V6.85527H20.5718V3.42777H17.1368V2.28027H15.9968V3.42777H7.9943V2.28027H6.8543V3.42777H3.4268V6.85527H2.2793V7.99527H3.4268V12.5703Z" fill="white"/>
<path d="M1.14062 21.7129H2.28062V22.8529H1.14062V21.7129Z" fill="white"/>
<path d="M1.14062 7.99512H2.28062V9.14262H1.14062V7.99512Z" fill="white"/>
<path d="M1.14 12.5701H2.28V11.4226H1.14V9.14258H0V21.7126H1.14V12.5701Z" fill="white"/>
</g>
<defs>
<clipPath id="clip0_110_14370">
<rect width="24" height="24" fill="white"/>
</clipPath>
</defs>
</svg>
