<svg width="40" height="40" viewBox="0 0 40 40" fill="none" xmlns="http://www.w3.org/2000/svg">
<path d="M14.2871 20.95V22.8625H21.8996V20.95H23.8121V22.8625H31.4246V20.95H33.3371V34.2875H35.2371V13.3375H33.3371V11.4375H31.4246V9.525H29.5246V7.625H23.8121V3.8125H21.8996V7.625H16.1871V9.525H14.2871V11.4375H12.3746V13.3375H10.4746V34.2875H12.3746V20.95H14.2871ZM19.9996 11.4375H21.8996V9.525H23.8121V11.4375H25.7121V15.2375H23.8121V17.15H21.8996V15.2375H19.9996V11.4375Z" fill="white"/>
<path d="M31.4238 34.2871H33.3363V36.1996H31.4238V34.2871Z" fill="white"/>
<path d="M29.5234 28.5752H31.4234V32.3877H29.5234V28.5752Z" fill="white"/>
<path d="M27.6113 36.2002H31.4238V38.1002H27.6113V36.2002Z" fill="white"/>
<path d="M27.6113 32.3877H29.5238V34.2877H27.6113V32.3877Z" fill="white"/>
<path d="M23.8125 34.2871H27.6125V36.1996H23.8125V34.2871Z" fill="white"/>
<path d="M18.0859 38.0996H27.6109V39.9996H18.0859V38.0996Z" fill="white"/>
<path d="M18.0859 1.91211H21.8984V3.81211H18.0859V1.91211Z" fill="white"/>
<path d="M14.2871 36.2002H18.0871V38.1002H14.2871V36.2002Z" fill="white"/>
<path d="M14.2871 3.8125H18.0871V5.7125H14.2871V3.8125Z" fill="white"/>
<path d="M12.375 34.2871H14.2875V36.1996H12.375V34.2871Z" fill="white"/>
<path d="M12.375 5.71289H14.2875V7.62539H12.375V5.71289Z" fill="white"/>
<path d="M6.66211 7.625H12.3746V9.525H6.66211V7.625Z" fill="white"/>
<path d="M8.57422 0H10.4742V1.9125H8.57422V0Z" fill="white"/>
<path d="M6.66211 1.91211H8.57461V3.81211H6.66211V1.91211Z" fill="white"/>
<path d="M4.76172 3.8125H6.66172V7.625H4.76172V3.8125Z" fill="white"/>
</svg>
