<svg width="40" height="40" viewBox="0 0 40 40" fill="none" xmlns="http://www.w3.org/2000/svg">
<g clip-path="url(#clip0_158_16851)">
<path d="M38.0996 3.81152H39.9996V36.1865H38.0996V3.81152Z" fill="#626483"/>
<path d="M36.1875 36.1885H38.1V38.101H36.1875V36.1885Z" fill="#626483"/>
<path d="M36.1875 1.89941H38.1V3.81191H36.1875V1.89941Z" fill="#626483"/>
<path d="M3.8125 38.1006H36.1875V40.0006H3.8125V38.1006Z" fill="#626483"/>
<path d="M34.2871 30.4756H32.3871V32.3756H30.4746V34.2881H32.3871V36.1881H34.2871V34.2881H36.1871V32.3756H34.2871V30.4756Z" fill="#626483"/>
<path d="M34.2871 3.81152H32.3871V5.71152H30.4746V7.61152H32.3871V9.52402H34.2871V7.61152H36.1871V5.71152H34.2871V3.81152Z" fill="#626483"/>
<path d="M26.677 7.61289H24.7645V5.71289H15.2395V7.61289H13.3395V9.52539H11.4395V15.2379H15.2395V11.4254H17.152V9.52539H20.952V11.4254H22.8645V15.2379H20.952V17.1379H19.052V19.0504H17.152V22.8504H22.8645V20.9504H24.7645V19.0504H26.677V17.1379H28.577V9.52539H26.677V7.61289Z" fill="#626483"/>
<path d="M22.8633 24.7627H17.1508V26.6627H15.2383V32.3752H17.1508V34.2877H22.8633V32.3752H24.7633V26.6627H22.8633V24.7627Z" fill="#626483"/>
<path d="M7.625 30.4756H5.7125V32.3756H3.8125V34.2881H5.7125V36.1881H7.625V34.2881H9.525V32.3756H7.625V30.4756Z" fill="#626483"/>
<path d="M7.625 3.81152H5.7125V5.71152H3.8125V7.61152H5.7125V9.52402H7.625V7.61152H9.525V5.71152H7.625V3.81152Z" fill="#626483"/>
<path d="M3.8125 0H36.1875V1.9H3.8125V0Z" fill="#626483"/>
<path d="M1.91406 36.1885H3.81406V38.101H1.91406V36.1885Z" fill="#626483"/>
<path d="M1.91406 1.89941H3.81406V3.81191H1.91406V1.89941Z" fill="#626483"/>
<path d="M0 3.81152H1.9125V36.1865H0V3.81152Z" fill="#626483"/>
</g>
<defs>
<clipPath id="clip0_158_16851">
<rect width="40" height="40" fill="white"/>
</clipPath>
</defs>
</svg>
