<svg width="40" height="40" viewBox="0 0 40 40" fill="none" xmlns="http://www.w3.org/2000/svg">
<path d="M38.0867 19.0436H36.1867V13.3311H34.2867V19.0436H30.4742V20.9561H28.5742V24.7561H30.4742V26.6686H34.2867V34.2811H36.1867V26.6686H38.0867V24.7561H39.9992V20.9561H38.0867V19.0436ZM34.2867 22.8561H32.3742V20.9561H34.2867V22.8561Z" fill="white"/>
<path d="M32.375 34.2812H34.2875V36.1937H32.375V34.2812Z" fill="white"/>
<path d="M32.375 11.4316H34.2875V13.3316H32.375V11.4316Z" fill="white"/>
<path d="M3.8125 36.1934H32.375V38.0934H3.8125V36.1934Z" fill="white"/>
<path d="M24.7617 3.80664H28.5742V5.71914H24.7617V3.80664Z" fill="white"/>
<path d="M20.9492 5.71875H24.7617V7.61875H20.9492V5.71875Z" fill="white"/>
<path d="M19.0508 3.80664H20.9508V5.71914H19.0508V3.80664Z" fill="white"/>
<path d="M15.2383 1.90625H19.0508V3.80625H15.2383V1.90625Z" fill="white"/>
<path d="M11.4258 3.80664H15.2383V5.71914H11.4258V3.80664Z" fill="white"/>
<path d="M7.61328 5.71875H11.4258V7.61875H7.61328V5.71875Z" fill="white"/>
<path d="M7.61328 13.3311H9.52578V34.2811H7.61328V13.3311Z" fill="white"/>
<path d="M32.375 11.4312V9.51875H30.475V5.71875H28.575V9.51875H20.95V7.61875H19.05V9.51875H7.6125V7.61875H5.7125V9.51875H3.8125V11.4312H32.375Z" fill="white"/>
<path d="M1.90039 34.2812H3.81289V36.1937H1.90039V34.2812Z" fill="white"/>
<path d="M1.90039 11.4316H3.81289V13.3316H1.90039V11.4316Z" fill="white"/>
<path d="M0 13.3311H1.9V34.2811H0V13.3311Z" fill="white"/>
</svg>
