<svg width="24" height="24" viewBox="0 0 24 24" fill="none" xmlns="http://www.w3.org/2000/svg">
<g clip-path="url(#clip0_151_22420)">
<path d="M40 24V22H8V24H0V16H2V-16H0V-24H8V-22H40V-24H48V-16H46V16H48V24H40ZM40 16H44V-16H40V-20H8V-16H4V16H8V20H40V16ZM42 18V22H46V18H42ZM46 -18V-22H42V-18H46ZM2 18V22H6V18H2ZM6 -18V-22H2V-18H6Z" fill="#414458"/>
<path d="M38 14V18H10V14H6V-14H10V-18H38V-14H42V14H38Z" fill="#272935"/>
</g>
<defs>
<clipPath id="clip0_151_22420">
<rect width="24" height="24" fill="white" transform="matrix(1 0 0 -1 0 24)"/>
</clipPath>
</defs>
</svg>
