<svg width="26" height="26" viewBox="0 0 26 26" fill="none" xmlns="http://www.w3.org/2000/svg">
<g clip-path="url(#clip0_151_22481)">
<path d="M42 24V22H10V24H2V16H4V-16H2V-24H10V-22H42V-24H50V-16H48V16H50V24H42ZM42 16H46V-16H42V-20H10V-16H6V16H10V20H42V16ZM44 18V22H48V18H44ZM48 -18V-22H44V-18H48ZM4 18V22H8V18H4ZM8 -18V-22H4V-18H8Z" fill="#414458"/>
<path d="M40 14V18H12V14H8V-14H12V-18H40V-14H44V14H40Z" fill="#272935"/>
<rect y="24" width="10" height="2" fill="#1E2029"/>
<rect x="10" y="22" width="16" height="2" fill="#1E2029"/>
<rect y="26" width="10" height="2" transform="rotate(-90 0 26)" fill="#1E2029"/>
<rect x="2" y="16" width="16" height="2" transform="rotate(-90 2 16)" fill="#1E2029"/>
<rect x="6" y="16" width="16" height="2" transform="rotate(-90 6 16)" fill="#1E2029"/>
<rect x="8" y="16" width="2" height="4" transform="rotate(-90 8 16)" fill="#1E2029"/>
<rect x="10" y="20" width="2" height="16" transform="rotate(-90 10 20)" fill="#1E2029"/>
<rect x="10" y="20" width="4" height="2" transform="rotate(-90 10 20)" fill="#1E2029"/>
<rect x="4" y="22" width="4" height="4" transform="rotate(-90 4 22)" fill="#1E2029"/>
</g>
<defs>
<clipPath id="clip0_151_22481">
<rect width="26" height="26" fill="white" transform="matrix(1 0 0 -1 0 26)"/>
</clipPath>
</defs>
</svg>
