<svg width="24" height="24" viewBox="0 0 24 24" fill="none" xmlns="http://www.w3.org/2000/svg">
<g clip-path="url(#clip0_151_22430)">
<path d="M-2 24L-2 22L30 22L30 24L38 24L38 16L36 16L36 -16L38 -16L38 -24L30 -24L30 -22L-2 -22L-2 -24L-10 -24L-10 -16L-8 -16L-8 16L-10 16L-10 24L-2 24ZM-2 16L-6 16L-6 -16L-2 -16L-2 -20L30 -20L30 -16L34 -16L34 16L30 16L30 20L-2 20L-2 16ZM-4 18L-4 22L-8 22L-8 18L-4 18ZM-8 -18L-8 -22L-4 -22L-4 -18L-8 -18ZM36 18L36 22L32 22L32 18L36 18ZM32 -18L32 -22L36 -22L36 -18L32 -18Z" fill="#414458"/>
<path d="M-8.74228e-07 14L-5.24537e-07 18L28 18L28 14L32 14L32 -14L28 -14L28 -18L-3.67176e-06 -18L-3.32207e-06 -14L-4 -14L-4 14L-8.74228e-07 14Z" fill="#272935"/>
</g>
<defs>
<clipPath id="clip0_151_22430">
<rect width="24" height="24" fill="white" transform="translate(24 24) rotate(180)"/>
</clipPath>
</defs>
</svg>
