<svg width="24" height="24" viewBox="0 0 24 24" fill="none" xmlns="http://www.w3.org/2000/svg">
<g clip-path="url(#clip0_151_22428)">
<path d="M-1.74846e-06 -2L2 -2L2 30L-3.49691e-07 30L0 38L8 38L8 36L40 36L40 38L48 38L48 30L46 30L46 -2L48 -2L48 -10L40 -10L40 -8L8 -8L8 -10L-2.09815e-06 -10L-1.74846e-06 -2ZM8 -2L8 -6L40 -6L40 -2L44 -2L44 30L40 30L40 34L8 34L8 30L4 30L4 -2L8 -2ZM6 -4L2 -4L2 -8L6 -8L6 -4ZM42 -8L46 -8L46 -4L42 -4L42 -8ZM6 36L2 36L2 32L6 32L6 36ZM42 32L46 32L46 36L42 36L42 32Z" fill="#414458"/>
<path d="M10 -4.37114e-07L6 -2.62268e-07L6 28L10 28L10 32L38 32L38 28L42 28L42 -1.83588e-06L38 -1.66103e-06L38 -4L10 -4L10 -4.37114e-07Z" fill="#272935"/>
</g>
<defs>
<clipPath id="clip0_151_22428">
<rect width="24" height="24" fill="white" transform="translate(0 24) rotate(-90)"/>
</clipPath>
</defs>
</svg>
