<svg width="26" height="26" viewBox="0 0 26 26" fill="none" xmlns="http://www.w3.org/2000/svg">
<g clip-path="url(#clip0_151_22559)">
<path d="M2 0L4 2.38498e-08L4 32L2 32L2 40L10 40L10 38L42 38L42 40L50 40L50 32L48 32L48 5.48545e-07L50 5.72394e-07L50 -8L42 -8L42 -6L10 -6L10 -8L2 -8L2 0ZM10 9.5399e-08L10 -4L42 -4L42 4.76995e-07L46 5.24695e-07L46 32L42 32L42 36L10 36L10 32L6 32L6 4.76995e-08L10 9.5399e-08ZM8 -2L4 -2L4 -6L8 -6L8 -2ZM44 -6L48 -6L48 -2L44 -2L44 -6ZM8 38L4 38L4 34L8 34L8 38ZM44 34L48 34L48 38L44 38L44 34Z" fill="#414458"/>
<path d="M12 2L8 2L8 30L12 30L12 34L40 34L40 30L44 30L44 2L40 2L40 -2L12 -2L12 2Z" fill="#272935"/>
<rect x="8" width="28" height="2" transform="rotate(90 8 0)" fill="#1E2029"/>
<rect x="12" width="28" height="4" transform="rotate(90 12 0)" fill="#272935"/>
<rect x="4" width="28" height="2" transform="rotate(90 4 0)" fill="#1E2029"/>
</g>
<defs>
<clipPath id="clip0_151_22559">
<rect width="26" height="26" fill="white" transform="translate(0 26) rotate(-90)"/>
</clipPath>
</defs>
</svg>
