<svg width="26" height="26" viewBox="0 0 26 26" fill="none" xmlns="http://www.w3.org/2000/svg">
<g clip-path="url(#clip0_151_22529)">
<path d="M-16 2V4H16V2H24V10H22V42H24V50H16V48H-16V50H-24V42H-22V10H-24V2H-16ZM-16 10H-20V42H-16V46H16V42H20V10H16V6H-16V10ZM-18 8V4H-22V8H-18ZM-22 44V48H-18V44H-22ZM22 8V4H18V8H22ZM18 44V48H22V44H18Z" fill="#414458"/>
<path d="M-14 12V8H14V12H18V40H14V44H-14V40H-18V12H-14Z" fill="#272935"/>
<rect x="26" y="2" width="10" height="2" transform="rotate(180 26 2)" fill="#1E2029"/>
<rect x="16" y="4" width="16" height="2" transform="rotate(180 16 4)" fill="#1E2029"/>
<rect x="26" width="10" height="2" transform="rotate(90 26 0)" fill="#1E2029"/>
<rect x="24" y="10" width="16" height="2" transform="rotate(90 24 10)" fill="#1E2029"/>
<rect x="20" y="10" width="16" height="2" transform="rotate(90 20 10)" fill="#1E2029"/>
<rect x="18" y="10" width="2" height="4" transform="rotate(90 18 10)" fill="#1E2029"/>
<rect x="16" y="6" width="2" height="16" transform="rotate(90 16 6)" fill="#1E2029"/>
<rect x="16" y="6" width="4" height="2" transform="rotate(90 16 6)" fill="#1E2029"/>
<rect x="22" y="4" width="4" height="4" transform="rotate(90 22 4)" fill="#1E2029"/>
</g>
<defs>
<clipPath id="clip0_151_22529">
<rect width="26" height="26" fill="white" transform="matrix(-1 0 0 1 26 0)"/>
</clipPath>
</defs>
</svg>
