<svg width="26" height="26" viewBox="0 0 26 26" fill="none" xmlns="http://www.w3.org/2000/svg">
<g clip-path="url(#clip0_151_22564)">
<path d="M26 2.00001L26 4.00001L-6 4L-6 2L-14 2L-14 10L-12 10L-12 42L-14 42L-14 50L-6.00001 50L-6.00001 48L26 48L26 50L34 50L34 42L32 42L32 10L34 10L34 2.00001L26 2.00001ZM26 10L30 10L30 42L26 42L26 46L-6.00001 46L-6.00001 42L-10 42L-10 10L-6 10L-6 6L26 6.00001L26 10ZM28 8.00001L28 4.00001L32 4.00001L32 8.00001L28 8.00001ZM32 44L32 48L28 48L28 44L32 44ZM-12 8L-12 4L-8 4L-8 8L-12 8ZM-8.00001 44L-8.00001 48L-12 48L-12 44L-8.00001 44Z" fill="#414458"/>
<path d="M24 12L24 8.00001L-4 8L-4 12L-8 12L-8.00001 40L-4.00001 40L-4.00001 44L24 44L24 40L28 40L28 12L24 12Z" fill="#272935"/>
<rect x="26" y="8" width="28" height="2" transform="rotate(-180 26 8)" fill="#1E2029"/>
<rect x="26" y="12" width="28" height="4" transform="rotate(-180 26 12)" fill="#272935"/>
<rect x="26" y="4" width="28" height="2" transform="rotate(-180 26 4)" fill="#1E2029"/>
</g>
<defs>
<clipPath id="clip0_151_22564">
<rect width="26" height="26" fill="white"/>
</clipPath>
</defs>
</svg>
