<svg width="24" height="24" viewBox="0 0 24 24" fill="none" xmlns="http://www.w3.org/2000/svg">
<g clip-path="url(#clip0_151_22424)">
<path d="M26 0V2H-6V0H-14V8H-12V40H-14V48H-6V46H26V48H34V40H32V8H34V0H26ZM26 8H30V40H26V44H-6V40H-10V8H-6V4H26V8ZM28 6V2H32V6H28ZM32 42V46H28V42H32ZM-12 6V2H-8V6H-12ZM-8 42V46H-12V42H-8Z" fill="#414458"/>
<path d="M24 10V6H-4V10H-8V38H-4V42H24V38H28V10H24Z" fill="#272935"/>
</g>
<defs>
<clipPath id="clip0_151_22424">
<rect width="24" height="24" fill="white"/>
</clipPath>
</defs>
</svg>
