<svg width="17" height="17" viewBox="0 0 17 17" fill="none" xmlns="http://www.w3.org/2000/svg">
<path d="M7.05287 0.595703H10.7557V1.82999H7.05287V0.595703ZM13.2014 3.06428H10.7557V1.82999H13.2014V3.06428ZM7.05287 3.06428H4.60715V1.82999H7.05287V3.06428ZM14.4357 4.29856H13.2014V3.06428H14.4357V4.29856ZM4.60715 4.29856H3.37287V3.06428H4.60715V4.29856ZM8.28715 6.74427H7.05287V5.50999H8.28715V4.29856H9.52144V11.6814H10.7557V12.8928H7.05287V11.6814H8.28715V6.74427ZM3.37287 6.74427H2.13858V4.29856H3.37287V6.74427ZM15.67 6.74427H14.4357V4.29856H15.67V6.74427ZM0.904297 6.74427H2.13858V10.4471H0.904297V6.74427ZM15.67 6.74427H16.9043V10.4471H15.67V6.74427ZM3.37287 12.8928H2.13858V10.4471H3.37287V12.8928ZM15.67 12.8928H14.4357V10.4471H15.67V12.8928ZM4.60715 14.1271H3.37287V12.8928H4.60715V14.1271ZM14.4357 14.1271H13.2014V12.8928H14.4357V14.1271ZM13.2014 15.3614H10.7557V14.1271H13.2014V15.3614ZM7.05287 15.3614H4.60715V14.1271H7.05287V15.3614ZM7.05287 15.3614H10.7557V16.5957H7.05287V15.3614Z" fill="white"/>
</svg>
