<svg width="17" height="17" viewBox="0 0 17 17" fill="none" xmlns="http://www.w3.org/2000/svg">
<path d="M6.50013 0.900391H10.203V2.13468H6.50013V0.900391ZM12.6487 3.36896H10.203V2.13468H12.6487V3.36896ZM6.50013 3.36896H4.05442V2.13468H6.50013V3.36896ZM13.883 4.60325H12.6487V3.36896H13.883V4.60325ZM4.05442 4.60325H2.82013V3.36896H4.05442V4.60325ZM10.203 5.81468H6.50013V4.60325H10.203V5.81468ZM15.1173 7.04896H13.883V4.60325H15.1173V7.04896ZM2.82013 7.04896H1.58585V4.60325H2.82013V7.04896ZM11.4373 8.28325H10.203V5.81468H11.4373V8.28325ZM6.50013 7.04896H5.26585V5.81468H6.50013V7.04896ZM0.351562 7.04896H1.58585V10.7518H0.351562V7.04896ZM15.1173 7.04896H16.3516V10.7518H15.1173V7.04896ZM10.203 9.51753H8.9687V8.28325H10.203V9.51753ZM8.9687 10.7518H6.50013V9.51753H8.9687V10.7518ZM2.82013 13.1975H1.58585V10.7518H2.82013V13.1975ZM15.1173 13.1975H13.883V10.7518H15.1173V13.1975ZM6.50013 11.9861H11.4373V13.1975H5.26585V10.7518H6.50013V11.9861ZM4.05442 14.4318H2.82013V13.1975H4.05442V14.4318ZM13.883 14.4318H12.6487V13.1975H13.883V14.4318ZM12.6487 15.6661H10.203V14.4318H12.6487V15.6661ZM6.50013 15.6661H4.05442V14.4318H6.50013V15.6661ZM6.50013 15.6661H10.203V16.9004H6.50013V15.6661Z" fill="white"/>
</svg>
