<svg width="16" height="16" viewBox="0 0 16 16" fill="none" xmlns="http://www.w3.org/2000/svg">
<path d="M6.14857 0H9.85143V1.23429H6.14857V0ZM12.2971 2.46857H9.85143V1.23429H12.2971V2.46857ZM6.14857 2.46857H3.70286V1.23429H6.14857V2.46857ZM13.5314 3.70286H12.2971V2.46857H13.5314V3.70286ZM3.70286 3.70286H2.46857V2.46857H3.70286V3.70286ZM9.85143 4.91429H6.14857V3.70286H9.85143V4.91429ZM2.46857 6.14857H1.23429V3.70286H2.46857V6.14857ZM14.7657 6.14857H13.5314V3.70286H14.7657V6.14857ZM6.14857 6.14857H4.91429V4.91429H6.14857V6.14857ZM11.0857 7.38286H9.85143V4.91429H11.0857V7.38286ZM0 6.14857H1.23429V9.85143H0V6.14857ZM14.7657 6.14857H16V9.85143H14.7657V6.14857ZM9.85143 8.61714H8.61714V7.38286H9.85143V8.61714ZM11.0857 11.0857H9.85143V8.61714H11.0857V11.0857ZM2.46857 12.2971H1.23429V9.85143H2.46857V12.2971ZM6.14857 11.0857H4.91429V9.85143H6.14857V11.0857ZM14.7657 12.2971H13.5314V9.85143H14.7657V12.2971ZM9.85143 12.2971H6.14857V11.0857H9.85143V12.2971ZM13.5314 13.5314H12.2971V12.2971H13.5314V13.5314ZM3.70286 13.5314H2.46857V12.2971H3.70286V13.5314ZM12.2971 14.7657H9.85143V13.5314H12.2971V14.7657ZM6.14857 14.7657H3.70286V13.5314H6.14857V14.7657ZM6.14857 14.7657H9.85143V16H6.14857V14.7657Z" fill="white"/>
</svg>
