<svg width="17" height="17" viewBox="0 0 17 17" fill="none" xmlns="http://www.w3.org/2000/svg">
<path d="M7.05091 0.450195H10.7538V1.68448H7.05091V0.450195ZM13.1995 2.91877H10.7538V1.68448H13.1995V2.91877ZM7.05091 2.91877H4.6052V1.68448H7.05091V2.91877ZM4.6052 4.15305H3.37092V2.91877H4.6052V4.15305ZM14.4338 4.15305H13.1995V2.91877H14.4338V4.15305ZM9.51949 6.59877H8.2852V5.36448H9.51949V4.15305H10.7538V9.06734H11.9881V10.3016H10.7538V12.7473H9.51949V10.3016H4.6052V9.06734H5.81663V7.83305H7.05091V9.06734H9.51949V6.59877ZM3.37092 6.59877H2.13663V4.15305H3.37092V6.59877ZM15.6681 6.59877H14.4338V4.15305H15.6681V6.59877ZM8.2852 7.83305H7.05091V6.59877H8.2852V7.83305ZM0.902344 6.59877H2.13663V10.3016H0.902344V6.59877ZM15.6681 6.59877H16.9023V10.3016H15.6681V6.59877ZM3.37092 12.7473H2.13663V10.3016H3.37092V12.7473ZM15.6681 12.7473H14.4338V10.3016H15.6681V12.7473ZM4.6052 13.9816H3.37092V12.7473H4.6052V13.9816ZM14.4338 13.9816H13.1995V12.7473H14.4338V13.9816ZM7.05091 15.2159H4.6052V13.9816H7.05091V15.2159ZM13.1995 15.2159H10.7538V13.9816H13.1995V15.2159ZM7.05091 15.2159H10.7538V16.4502H7.05091V15.2159Z" fill="white"/>
</svg>
