<svg width="1600" height="900" viewBox="0 0 1600 900" fill="none" xmlns="http://www.w3.org/2000/svg">
<g clip-path="url(#clip0_53_8956)">
<path d="M24 8H32V20H36V0H1564V20H1568V8H1576V0H1600V24H1592V32H1580V36H1600V864H1580V868H1592V876H1600V900H1576V892H1568V880H1564V900H36V880H32V892H24V900H0V876H8V868H20V864H0V36H20V32H8V24H0V0H24V8ZM4 896H20V892H8V880H4V896ZM40 24H32V32H24V40H4V860H24V868H32V876H40V896H1560V876H1568V868H1576V860H1596V40H1576V32H1568V24H1560V4H40V24ZM1592 892H1580V896H1596V880H1592V892ZM1556 28H1564V36H1572V44H1592V856H1572V864H1564V872H1556V892H44V872H36V864H28V856H8V44H28V36H36V28H44V8H1556V28ZM12 888H20V880H12V888ZM24 888H28V880H24V888ZM1572 888H1576V880H1572V888ZM1580 888H1588V880H1580V888ZM12 876H20V872H12V876ZM24 876H28V872H24V876ZM1572 876H1576V872H1572V876ZM1580 876H1588V872H1580V876ZM12 28H20V24H12V28ZM24 28H28V24H24V28ZM1572 28H1576V24H1572V28ZM1580 28H1588V24H1580V28ZM4 20H8V8H20V4H4V20ZM12 20H20V12H12V20ZM24 20H28V12H24V20ZM1572 20H1576V12H1572V20ZM1580 20H1588V12H1580V20ZM1580 8H1592V20H1596V4H1580V8Z" fill="#D9D9D9"/>
</g>
<defs>
<clipPath id="clip0_53_8956">
<rect width="1600" height="900" fill="white"/>
</clipPath>
</defs>
</svg>
