<svg width="1600" height="900" viewBox="0 0 1600 900" fill="none" xmlns="http://www.w3.org/2000/svg">
<g clip-path="url(#clip0_62_23661)">
<path fill-rule="evenodd" clip-rule="evenodd" d="M40.0005 30H49.9995V0H1487.5V10.0005H60V40.0005H40.0005V60H10.0005V821.75H0V49.9995H30V40.0005H0V0H40.0005V30ZM10.0005 30H30V10.0005H10.0005V30Z" fill="#D9D9D9"/>
<path d="M1502 828.5H19.998V70.0005H69.9976V20.001H1502V828.5Z" fill="#D9D9D9"/>
<path d="M60 60H49.9995V49.9995H60V60Z" fill="#D9D9D9"/>
<path fill-rule="evenodd" clip-rule="evenodd" d="M1560 30H1550V0H1480V10H1540V40H1560V60H1590V120H1600V50H1570V40H1600V0H1560V30ZM1590 30H1570V10H1590V30Z" fill="#D9D9D9"/>
<path d="M1480 120H1580V70.001H1530V20.001H1480V120Z" fill="#D9D9D9"/>
<path d="M1540 60H1550V50H1540V60Z" fill="#D9D9D9"/>
<path fill-rule="evenodd" clip-rule="evenodd" d="M1560 870H1550V900H1480V890H1540V860H1560V840H1590L1590 95H1600L1600 850H1570V860H1600V900H1560V870ZM1590 870H1570V890H1590V870Z" fill="#D9D9D9"/>
<path d="M1480 95H1580L1580 829.999H1530V879.999H1480L1480 95Z" fill="#D9D9D9"/>
<path d="M1540 840H1550V850H1540V840Z" fill="#D9D9D9"/>
<path fill-rule="evenodd" clip-rule="evenodd" d="M40 870H50V900H1491V890H60V860H40V840H10V780H0V850H30V860H0V900H40V870ZM10 870H30V890H10V870Z" fill="#D9D9D9"/>
<path d="M1491 780H19.998V829.999H69.998V879.999H1491V780Z" fill="#D9D9D9"/>
<path d="M60 840H50V850H60V840Z" fill="#D9D9D9"/>
</g>
<defs>
<clipPath id="clip0_62_23661">
<rect width="1600" height="900" fill="white"/>
</clipPath>
</defs>
</svg>
