<svg width="24" height="24" viewBox="0 0 24 24" fill="none" xmlns="http://www.w3.org/2000/svg">
<g clip-path="url(#clip0_119_14153)">
<path d="M22.8516 2.28711H23.9991V21.7121H22.8516V2.28711Z" fill="white"/>
<path d="M21.7129 21.7129H22.8529V22.8604H21.7129V21.7129Z" fill="white"/>
<path d="M21.7129 1.13965H22.8529V2.28715H21.7129V1.13965Z" fill="white"/>
<path d="M20.5645 3.42773H21.712V20.5727H20.5645V3.42773Z" fill="white"/>
<path d="M2.2793 22.8604H21.7118V24.0004H2.2793V22.8604Z" fill="white"/>
<path d="M3.42773 20.5723H20.5652V21.7123H3.42773V20.5723Z" fill="white"/>
<path d="M17.1382 11.4297H15.9982V10.2822H13.7107V11.4297H12.5707V10.2822H10.2832V17.1447H12.5707V13.7172H13.7107V12.5697H14.8582V13.7172H15.9982V17.1447H18.2857V12.5697H17.1382V11.4297Z" fill="white"/>
<path d="M5.70703 10.2822H7.99453V17.1447H5.70703V10.2822Z" fill="white"/>
<path d="M5.70703 6.85547H7.99453V9.14297H5.70703V6.85547Z" fill="white"/>
<path d="M3.42773 2.28711H20.5652V3.42711H3.42773V2.28711Z" fill="white"/>
<path d="M2.2793 0H21.7118V1.14H2.2793V0Z" fill="white"/>
<path d="M2.2793 3.42773H3.4268V20.5727H2.2793V3.42773Z" fill="white"/>
<path d="M1.14062 21.7129H2.28062V22.8604H1.14062V21.7129Z" fill="white"/>
<path d="M1.14062 1.13965H2.28062V2.28715H1.14062V1.13965Z" fill="white"/>
<path d="M0 2.28711H1.14V21.7121H0V2.28711Z" fill="white"/>
</g>
<defs>
<clipPath id="clip0_119_14153">
<rect width="24" height="24" fill="white"/>
</clipPath>
</defs>
</svg>
