<svg width="4" height="16" viewBox="0 0 4 16" fill="none" xmlns="http://www.w3.org/2000/svg">
<g clip-path="url(#clip0_96_35945)">
<path d="M0.5 0.5H1.2875L1.65 0.15C1.74167 0.05 1.85833 0 2 0C2.14167 0 2.2625 0.05 2.3625 0.15L2.7125 0.5H3.5C3.64167 0.5 3.7625 0.55 3.8625 0.65C3.95417 0.741667 4 0.858333 4 1V15C4 15.1417 3.95417 15.2625 3.8625 15.3625C3.7625 15.4542 3.64167 15.5 3.5 15.5H2.7125L2.3625 15.8625C2.2625 15.9542 2.14167 16 2 16C1.85833 16 1.74167 15.9542 1.65 15.8625L1.2875 15.5H0.5C0.358333 15.5 0.241667 15.4542 0.15 15.3625C0.05 15.2625 0 15.1417 0 15V1C0 0.858333 0.05 0.741667 0.15 0.65C0.241667 0.55 0.358333 0.5 0.5 0.5ZM0.5 15H1.5L2 15.5L2.5 15H3.5V1H2.5L2 0.5L1.5 1H0.5V15Z" fill="#475976"/>
<path d="M0.5 15V1H1.5L2 0.5L2.5 1H3.5V15H2.5L2 15.5L1.5 15H0.5ZM3 1.5H1V14.5H3V1.5Z" fill="#99A9C2"/>
<path d="M3 1.5V14.5H1V1.5H3Z" fill="#6E85A8"/>
</g>
<defs>
<clipPath id="clip0_96_35945">
<rect width="4" height="16" fill="white"/>
</clipPath>
</defs>
</svg>
