<svg width="13" height="13" viewBox="0 0 13 13" fill="none" xmlns="http://www.w3.org/2000/svg">
<path d="M5.97074 8.18862H5.04502V7.26291H0.433594V6.33719H5.04502V5.41148H5.97074V0.800049H6.89645V5.41148H7.82217V6.33719H12.4336V7.26291H7.82217V8.18862H6.89645V12.8H5.97074V8.18862ZM2.28502 2.65148H1.35931V1.72576H2.28502V2.65148ZM11.5079 2.65148H10.5822V1.72576H11.5079V2.65148ZM3.21074 3.57719H2.28502V2.65148H3.21074V3.57719ZM10.5822 3.57719H9.65645V2.65148H10.5822V3.57719ZM4.11931 4.48576H3.21074V3.57719H4.11931V4.48576ZM9.65645 4.48576H8.74788V3.57719H9.65645V4.48576ZM4.11931 5.41148V4.48576H5.04502V5.41148H4.11931ZM8.74788 5.41148H7.82217V4.48576H8.74788V5.41148ZM4.11931 8.18862H5.04502V9.11434H4.11931V8.18862ZM7.82217 8.18862H8.74788V9.11434H7.82217V8.18862ZM8.74788 9.11434H9.65645V10.0229H8.74788V9.11434ZM3.21074 9.11434H4.11931V10.0229H3.21074V9.11434ZM9.65645 10.0229H10.5822V10.9486H9.65645V10.0229ZM2.28502 10.0229H3.21074V10.9486H2.28502V10.0229ZM10.5822 10.9486H11.5079V11.8743H10.5822V10.9486ZM1.35931 10.9486H2.28502V11.8743H1.35931V10.9486Z" fill="white"/>
</svg>
