<svg width="128" height="128" viewBox="0 0 128 128" fill="none" xmlns="http://www.w3.org/2000/svg">
<g clip-path="url(#clip0_158_16733)">
<path d="M121.918 36.5625H115.797V54.8825H91.4375V60.9625H97.5175V67.0425H103.638V60.9625H109.717V67.0425H115.797V60.9625H121.918V67.0425H115.797V73.1625H121.918V79.2425H127.997V48.7625H121.918V36.5625Z" fill="white"/>
<path d="M115.804 85.3199H109.724V79.2399H103.644V73.1599H97.5237V79.2399H91.4438V73.1599H85.3238V67.0399H91.4438V60.9599H85.3238V54.8799H79.2437V73.1599H73.1637V79.2399H54.8438V85.3199H73.1637V91.4399H79.2437V103.64H85.3238V115.8H79.2437V121.92H91.4438V115.8H103.644V109.72H109.724V103.64H115.804V91.4399H121.924V79.2399H115.804V85.3199Z" fill="white"/>
<path d="M109.719 73.1611H115.799V79.2411H109.719V73.1611Z" fill="white"/>
<path d="M109.719 24.4014H115.799V36.5614H109.719V24.4014Z" fill="white"/>
<path d="M103.635 67.042H109.715V73.162H103.635V67.042Z" fill="white"/>
<path d="M103.635 18.2812H109.715V24.4012H103.635V18.2812Z" fill="white"/>
<path d="M91.4375 67.042H97.5175V73.162H91.4375V67.042Z" fill="white"/>
<path d="M91.4375 12.1982H103.638V18.2782H91.4375V12.1982Z" fill="white"/>
<path d="M79.2402 6.12012H91.4402V12.2001H79.2402V6.12012Z" fill="white"/>
<path d="M73.1562 48.7607H79.2363V54.8807H73.1562V48.7607Z" fill="white"/>
<path d="M48.7598 121.922H79.2398V128.002H48.7598V121.922Z" fill="white"/>
<path d="M73.1637 54.8799H54.8438V73.1599H73.1637V54.8799ZM67.0437 67.0399H60.9638V60.9599H67.0437V67.0399Z" fill="white"/>
<path d="M54.8398 24.4H60.9598V6.12H79.2398V0H48.7598V6.12H54.8398V24.4Z" fill="white"/>
<path d="M48.7598 73.1611H54.8398V79.2411H48.7598V73.1611Z" fill="white"/>
<path d="M36.5625 115.802H48.7625V121.922H36.5625V115.802Z" fill="white"/>
<path d="M48.7625 54.8814H54.8425V48.7614H73.1625V42.6814H67.0425V24.4014H60.9625V42.6814H54.8425V36.5614H48.7625V48.7614H36.5625V54.8814H42.6825V73.1614H48.7625V54.8814Z" fill="white"/>
<path d="M42.6777 24.4014H48.7577V36.5614H42.6777V24.4014Z" fill="white"/>
<path d="M36.5625 97.5205H48.7625V103.641H36.5625V97.5205Z" fill="white"/>
<path d="M24.3965 109.719H36.5565V115.799H24.3965V109.719Z" fill="white"/>
<path d="M30.4785 91.4375H36.5585V97.5175H30.4785V91.4375Z" fill="white"/>
<path d="M24.3965 42.6826H36.5565V48.7626H24.3965V42.6826Z" fill="white"/>
<path d="M36.5565 24.4001H42.6765V12.2001H48.7565V6.12012H36.5565V12.2001H24.3965V18.2801H36.5565V24.4001Z" fill="white"/>
<path d="M24.3965 79.2393H30.4765V91.4393H24.3965V79.2393Z" fill="white"/>
<path d="M18.2812 103.641H24.4012V109.721H18.2812V103.641Z" fill="white"/>
<path d="M18.2812 18.2812H24.4012V24.4012H18.2812V18.2812Z" fill="white"/>
<path d="M12.1973 91.4375H18.2773V103.638H12.1973V91.4375Z" fill="white"/>
<path d="M6.08398 79.2393H12.204V91.4393H6.08398V79.2393Z" fill="white"/>
<path d="M12.204 42.6814H24.404V36.5614H18.284V24.4014H12.204V36.5614H6.08398V48.7614H12.204V42.6814Z" fill="white"/>
<path d="M0 48.7607H6.08V79.2407H0V48.7607Z" fill="white"/>
</g>
<defs>
<clipPath id="clip0_158_16733">
<rect width="128" height="128" fill="white"/>
</clipPath>
</defs>
</svg>
