<svg width="16" height="16" viewBox="0 0 16 16" fill="none" xmlns="http://www.w3.org/2000/svg">
<g clip-path="url(#clip0_109_12021)">
<path d="M-24 14V16H8V14H6V12H12V6H14V8H16V-24H14V-22H12V-28H6V-30H8V-32H-24V-30H-22V-28H-28V-22H-30V-24H-32V8H-30V6H-28V12H-22V14H-24ZM-20 10H-26V4H-30V-20H-26V-26H-20V-30H4V-26H10V-20H14V4H10V10H4V14H-20V10ZM-18 8V12H2V8H8V2H12V-18H8V-24H2V-28H-18V-24H-24V-18H-28V2H-24V8H-18Z" fill="white"/>
</g>
<defs>
<clipPath id="clip0_109_12021">
<rect width="16" height="16" fill="white" transform="matrix(-1 0 0 -1 16 16)"/>
</clipPath>
</defs>
</svg>
