<svg width="48" height="16" viewBox="0 0 48 16" fill="none" xmlns="http://www.w3.org/2000/svg">
<g clip-path="url(#clip0_110_12169)">
<path d="M26 14L26 16L58 16L58 14L56 14L56 12L62 12L62 6L64 6L64 8L66 8L66 -24L64 -24L64 -22L62 -22L62 -28L56 -28L56 -30L58 -30L58 -32L26 -32L26 -30L28 -30L28 -28L22 -28L22 -22L20 -22L20 -24L18 -24L18 8L20 8L20 6L22 6L22 12L28 12L28 14L26 14ZM30 10L24 10L24 4L20 4L20 -20L24 -20L24 -26L30 -26L30 -30L54 -30L54 -26L60 -26L60 -20L64 -20L64 4L60 4L60 10L54 10L54 14L30 14L30 10ZM32 8L32 12L52 12L52 8L58 8L58 2L62 2L62 -18L58 -18L58 -24L52 -24L52 -28L32 -28L32 -24L26 -24L26 -18L22 -18L22 2L26 2L26 8L32 8Z" fill="white"/>
</g>
<g clip-path="url(#clip1_110_12169)">
<path d="M10 14L10 16L42 16L42 14L40 14L40 12L46 12L46 6L48 6L48 8L50 8L50 -24L48 -24L48 -22L46 -22L46 -28L40 -28L40 -30L42 -30L42 -32L10 -32L10 -30L12 -30L12 -28L6 -28L6 -22L4 -22L4 -24L2 -24L2 8L4 8L4 6L6 6L6 12L12 12L12 14L10 14ZM14 10L8 10L8 4L4 4L4 -20L8 -20L8 -26L14 -26L14 -30L38 -30L38 -26L44 -26L44 -20L48 -20L48 4L44 4L44 10L38 10L38 14L14 14L14 10ZM16 8L16 12L36 12L36 8L42 8L42 2L46 2L46 -18L42 -18L42 -24L36 -24L36 -28L16 -28L16 -24L10 -24L10 -18L6 -18L6 2L10 2L10 8L16 8Z" fill="white"/>
</g>
<g clip-path="url(#clip2_110_12169)">
<path d="M-6 14L-6 16L26 16L26 14L24 14L24 12L30 12L30 6L32 6L32 8L34 8L34 -24L32 -24L32 -22L30 -22L30 -28L24 -28L24 -30L26 -30L26 -32L-6 -32L-6 -30L-4 -30L-4 -28L-10 -28L-10 -22L-12 -22L-12 -24L-14 -24L-14 8L-12 8L-12 6L-10 6L-10 12L-4 12L-4 14L-6 14ZM-2 10L-8 10L-8 4L-12 4L-12 -20L-8 -20L-8 -26L-2 -26L-2 -30L22 -30L22 -26L28 -26L28 -20L32 -20L32 4L28 4L28 10L22 10L22 14L-2 14L-2 10ZM6.99382e-07 8L3.49691e-07 12L20 12L20 8L26 8L26 2L30 2L30 -18L26 -18L26 -24L20 -24L20 -28L3.8466e-06 -28L3.49691e-06 -24L-6 -24L-6 -18L-10 -18L-10 2L-6 2L-6 8L6.99382e-07 8Z" fill="white"/>
</g>
<defs>
<clipPath id="clip0_110_12169">
<rect width="16" height="16" fill="white" transform="translate(48 16) rotate(-180)"/>
</clipPath>
<clipPath id="clip1_110_12169">
<rect width="16" height="16" fill="white" transform="translate(32 16) rotate(-180)"/>
</clipPath>
<clipPath id="clip2_110_12169">
<rect width="16" height="16" fill="white" transform="translate(16 16) rotate(-180)"/>
</clipPath>
</defs>
</svg>
