<svg width="16" height="16" viewBox="0 0 16 16" fill="none" xmlns="http://www.w3.org/2000/svg">
<g clip-path="url(#clip0_109_12026)">
<path d="M2 -6L-1.74846e-06 -6L-3.49691e-07 26L2 26L2 24L4 24L4 30L10 30L10 32L8 32L8 34L40 34L40 32L38 32L38 30L44 30L44 24L46 24L46 26L48 26L48 -6L46 -6L46 -4L44 -4L44 -10L38 -10L38 -12L40 -12L40 -14L8 -14L8 -12L10 -12L10 -10L4 -10L4 -4L2 -4L2 -6ZM6 -2L6 -8L12 -8L12 -12L36 -12L36 -8L42 -8L42 -2L46 -2L46 22L42 22L42 28L36 28L36 32L12 32L12 28L6 28L6 22L2 22L2 -2L6 -2ZM8 -3.49691e-07L4 -1.74846e-07L4 20L8 20L8 26L14 26L14 30L34 30L34 26L40 26L40 20L44 20L44 -1.9233e-06L40 -1.74846e-06L40 -6L34 -6L34 -10L14 -10L14 -6L8 -6L8 -3.49691e-07Z" fill="white"/>
</g>
<defs>
<clipPath id="clip0_109_12026">
<rect width="16" height="16" fill="white" transform="translate(0 16) rotate(-90)"/>
</clipPath>
</defs>
</svg>
