<svg width="16" height="16" viewBox="0 0 16 16" fill="none" xmlns="http://www.w3.org/2000/svg">
<g clip-path="url(#clip0_110_12203)">
<path d="M14 -6H16V26H14V24H12V30H6V32H8V34H-24V32H-22V30H-28L-28 24H-30V26H-32L-32 -6H-30V-4H-28V-10L-22 -10V-12H-24V-14L8 -14V-12H6V-10H12V-4H14V-6ZM10 -2V-8H4V-12L-20 -12V-8H-26V-2H-30L-30 22H-26V28H-20V32H4V28H10V22H14V-2H10ZM8 9.53674e-07L12 1.90735e-06V20H8V26H2V30H-18V26H-24V20H-28L-28 0H-24V-6H-18L-18 -10L2 -10V-6H8V9.53674e-07Z" fill="white"/>
</g>
<defs>
<clipPath id="clip0_110_12203">
<rect width="16" height="16" fill="white" transform="matrix(4.37114e-08 -1 -1 -4.37114e-08 16 16)"/>
</clipPath>
</defs>
</svg>
