<svg width="48" height="16" viewBox="0 0 48 16" fill="none" xmlns="http://www.w3.org/2000/svg">
<g clip-path="url(#clip0_109_12015)">
<path d="M22 2V0H-10V2H-8V4H-14V10H-16V8H-18V40H-16V38H-14V44H-8V46H-10V48H22V46H20V44H26V38H28V40H30V8H28V10H26V4H20V2H22ZM18 6H24V12H28V36H24V42H18V46H-6V42H-12V36H-16V12H-12V6H-6V2H18V6ZM16 8V4H-4V8H-10V14H-14V34H-10V40H-4V44H16V40H22V34H26V14H22V8H16Z" fill="white"/>
</g>
<g clip-path="url(#clip1_109_12015)">
<path d="M38 2V0H6V2H8V4H2V10H0V8H-2V40H0V38H2V44H8V46H6V48H38V46H36V44H42V38H44V40H46V8H44V10H42V4H36V2H38ZM34 6H40V12H44V36H40V42H34V46H10V42H4V36H0V12H4V6H10V2H34V6ZM32 8V4H12V8H6V14H2V34H6V40H12V44H32V40H38V34H42V14H38V8H32Z" fill="white"/>
</g>
<g clip-path="url(#clip2_109_12015)">
<path d="M54 2V0H22V2H24V4H18V10H16V8H14V40H16V38H18V44H24V46H22V48H54V46H52V44H58V38H60V40H62V8H60V10H58V4H52V2H54ZM50 6H56V12H60V36H56V42H50V46H26V42H20V36H16V12H20V6H26V2H50V6ZM48 8V4H28V8H22V14H18V34H22V40H28V44H48V40H54V34H58V14H54V8H48Z" fill="white"/>
</g>
<defs>
<clipPath id="clip0_109_12015">
<rect width="16" height="16" fill="white"/>
</clipPath>
<clipPath id="clip1_109_12015">
<rect width="16" height="16" fill="white" transform="translate(16)"/>
</clipPath>
<clipPath id="clip2_109_12015">
<rect width="16" height="16" fill="white" transform="translate(32)"/>
</clipPath>
</defs>
</svg>
