<svg width="16" height="16" viewBox="0 0 16 16" fill="none" xmlns="http://www.w3.org/2000/svg">
<g clip-path="url(#clip0_109_11991)">
<path d="M-24 2V0H8V2H6V4H12V10H14V8H16V40H14V38H12V44H6V46H8V48H-24V46H-22V44H-28V38H-30V40H-32V8H-30V10H-28V4H-22V2H-24ZM-20 6H-26V12H-30V36H-26V42H-20V46H4V42H10V36H14V12H10V6H4V2H-20V6ZM-18 8V4H2V8H8V14H12V34H8V40H2V44H-18V40H-24V34H-28V14H-24V8H-18Z" fill="white"/>
</g>
<defs>
<clipPath id="clip0_109_11991">
<rect width="16" height="16" fill="white" transform="matrix(-1 0 0 1 16 0)"/>
</clipPath>
</defs>
</svg>
